<?xml version="1.0"?><svg xmlns="http://www.w3.org/2000/svg" viewBox="0 0 100 100"><g><path d="M90 89.82l-2.579-14.291a16.707 16.707 0 0 0-13.708-13.515L50 58.083l-23.713 3.931a16.705 16.705 0 0 0-13.708 13.515L10 89.82h80z" fill="#e0e0e0"/><g><path fill="#c33736" d="M56.936 73.187L50 79.044l-6.936-5.857V61.782h13.872z"/><path fill="#c33736" d="M55.038 90.079l-1.871-14.166H47.28l-1.87 14.166z"/></g><path fill="#fff" d="M41.369 59.933l-6.002-4.828-6.02 6.402 13.255 15.379 5.548-14.179z"/><path fill="#fff" d="M58.631 59.933l6.002-4.828 6.02 6.402-13.255 15.379-5.548-14.179z"/><g><path d="M70.653 35.426c0 13.96-9.247 28.976-20.653 28.976S29.347 49.386 29.347 35.426 38.594 13.849 50 13.849s20.653 7.618 20.653 21.577z" fill="#f4e6c8"/><path d="M50 13.849c-11.406 0-20.653 7.618-20.653 21.578 0 .755.032 1.512.085 2.271 9.204-.41 17.422-3.85 23.201-9.121 2.853 5.516 7.75 9.162 13.319 9.162 1.624 0 3.191-.314 4.667-.89.021-.475.034-.949.034-1.422 0-13.96-9.247-21.578-20.653-21.578z" fill="#323232"/></g></g><metadata xmlns:d="https://loading.io/stock/">
<d:name>user</d:name>
<d:tags>user,avatar,man,person,member,crew,staff,owner,account</d:tags>
<d:license>by</d:license>
<d:slug>qmm3wh</d:slug>
</metadata></svg>